<?xml version="1.0" encoding="UTF-8" standalone="no"?>
<!-- Created with Inkscape (http://www.inkscape.org/) -->

<svg
   width="6.6754737in"
   height="8.6860342in"
   viewBox="0 0 169.55703 220.62527"
   version="1.1"
   id="svg5"
   xml:space="preserve"
   xmlns="http://www.w3.org/2000/svg"
   xmlns:svg="http://www.w3.org/2000/svg"><defs
     id="defs2" /><g
     id="layer1"
     transform="translate(-24.289629,-23.853804)"><path
       id="path6039"
       style="fill:#000000;stroke-width:0.264583"
       d="m 128.59577,23.853841 c -0.83259,-0.0047 -1.28079,0.416659 -1.92805,1.405599 -1.51271,2.311263 -4.30891,8.826363 -6.01824,14.022917 -2.0734,6.303405 -2.50889,7.808176 -2.50889,8.672339 0,1.425896 -0.50146,0.919122 -0.92139,-0.93121 -0.23971,-1.056234 -0.95028,-3.527642 -1.57871,-5.492171 -0.62844,-1.964529 -1.40748,-4.464845 -1.73116,-5.55625 -1.91432,-6.454945 -2.39284,-7.234744 -4.21112,-6.863147 -2.32105,0.474347 -2.69973,0.614597 -3.31504,1.229899 -1.5621,1.562113 -1.53988,3.612456 0.0904,8.411373 1.18611,3.491354 4.94141,11.24133 6.32623,13.055534 0.48352,0.633445 0.84109,1.187813 0.79479,1.232483 -0.086,0.08288 -7.90819,0.466831 -8.74934,0.429431 -0.25467,-0.01133 -0.61185,-0.02854 -0.79375,-0.03824 -0.87012,-0.04641 -6.861704,0.806655 -8.257377,1.175639 -0.867316,0.229299 -1.781742,0.417029 -2.031917,0.417029 -0.466675,0 -4.174383,1.204746 -8.165394,2.653585 -1.236925,0.449037 -2.546615,0.918249 -2.910416,1.042314 -0.363802,0.124068 -1.161586,0.474193 -1.773019,0.778247 -1.49233,0.742103 -1.901822,0.699635 -2.71973,-0.280087 l -0.695048,-0.832507 -1.441256,0.357084 c -0.792481,0.196204 -1.589567,0.327165 -1.771468,0.291455 -0.181901,-0.03571 -0.330729,0.04925 -0.330729,0.188619 0,0.211489 -1.612281,0.686742 -5.236373,1.544092 -0.40322,0.09539 -1.051015,-0.13315 -1.935799,-0.683162 -0.731382,-0.454652 -1.444978,-0.826307 -1.58595,-0.826307 -0.569277,0 -1.526325,0.869188 -1.83503,1.666565 -0.951096,2.456656 -2.31638,4.809066 -3.288688,5.666321 -6.325497,5.577001 -13.370244,12.750668 -13.370244,13.61519 0,0.11444 -0.574668,1.073818 -1.276924,2.131653 -2.638505,3.974461 -4.767938,9.141485 -6.408911,15.549438 -0.673495,2.629964 -0.779269,3.527224 -0.779798,6.614584 -3.84e-4,2.05967 0.163105,4.41199 0.38654,5.55625 0.409935,2.09939 1.870496,6.05679 2.776058,7.52202 0.297341,0.48111 0.540535,1.0612 0.540535,1.28933 0,0.22814 -0.863204,1.12506 -1.918229,1.99316 -2.374389,1.95367 -3.465643,3.11703 -5.049821,5.38365 -1.732918,2.47944 -2.179795,4.33282 -1.804541,7.48481 0.156367,1.31341 0.407364,2.81098 0.557589,3.32745 0.335936,1.15495 2.142007,4.20515 3.439067,5.80791 0.529947,0.65484 1.156183,1.49794 1.391646,1.87379 0.526266,0.84005 5.082138,4.32823 6.339148,4.85345 0.504308,0.21071 1.561395,0.807 2.348694,1.3255 0.787299,0.51849 1.535021,0.9431 1.661397,0.9431 0.126373,0 0.545461,0.22109 0.931726,0.49144 0.386265,0.27035 0.999938,0.55762 1.363741,0.63872 1.112402,0.24806 5.147003,1.8845 5.353679,2.17144 0.283334,0.39336 0.24549,1.92292 -0.06098,2.4567 -0.374554,0.65236 -1.541709,3.9061 -1.999361,5.57382 -0.212918,0.77589 -0.490314,1.60932 -0.615983,1.85208 -0.12567,0.24275 -0.306286,1.03714 -0.401526,1.76475 -0.287547,2.19682 -0.702806,4.94908 -0.958081,6.35 -0.132586,0.7276 -0.383685,3.0065 -0.558105,5.06429 l -0.317294,3.74138 -0.948779,0.26148 c -2.719255,0.75012 -12.586323,-0.38368 -18.058329,-2.07533 -5.692245,-1.75973 -7.774904,-1.95048 -8.218103,-0.7524 -0.324414,0.87697 -0.115845,1.53813 1.578715,5.00538 1.888697,3.86446 3.582722,6.29275 7.844999,11.24479 2.039941,2.37005 10.477552,10.78475 12.203906,12.17083 0.724976,0.58209 1.479194,1.21022 1.675867,1.3963 0.696131,0.65865 8.058455,5.41141 8.977747,5.79551 0.513182,0.21442 1.222273,0.57928 1.575614,0.8108 1.056035,0.69194 6.104222,2.92574 7.02231,3.10731 0.468995,0.0928 1.209849,0.32613 1.646411,0.51883 1.14197,0.50407 2.602719,0.93754 3.194121,0.94774 0.280709,0.005 0.986297,0.34994 1.568379,0.76688 0.582083,0.41694 2.159663,1.32594 3.50573,2.02003 1.346066,0.69409 2.447395,1.33155 2.447395,1.41645 0,0.0849 -0.521213,0.43083 -1.158585,0.76895 -3.772552,2.00134 -9.240074,6.80423 -10.749732,9.44283 -1.182683,2.06712 -1.268214,2.83857 -0.377754,3.42202 0.664825,0.43561 1.00887,0.45187 4.059183,0.19068 3.44742,-0.29519 8.887652,-0.005 9.404594,0.5023 0.138245,0.13555 0.424051,0.2465 0.635104,0.2465 0.584805,0 3.003737,1.24561 3.746024,1.92908 1.240014,1.14176 3.568895,2.76656 4.363041,3.04374 v -5.2e-4 c 1.285787,0.44878 1.82119,0.36853 4.12378,-0.61702 4.428802,-1.8956 9.379794,-2.46826 13.471014,-1.55804 1.0914,0.24281 2.34156,0.48213 2.77812,0.53123 0.43656,0.0491 1.80146,0.51055 3.03289,1.02578 2.13291,0.89239 3.86323,1.16747 4.88291,0.77618 1.13833,-0.43682 -0.32273,-5.83529 -3.30729,-12.21992 -0.56983,-1.219 -0.71133,-1.79039 -0.52813,-2.13269 0.26183,-0.48925 4.02135,-1.63871 7.03367,-2.15026 0.87391,-0.1484 2.005,-0.39293 2.51355,-0.54363 3.45518,-1.02395 8.67883,-2.22058 10.97349,-2.51406 0.5791,-0.0741 1.47206,-0.2438 1.98437,-0.37724 0.5123,-0.13344 1.70511,-0.31389 2.651,-0.40049 3.37414,-0.30901 4.6509,-0.44192 6.15156,-0.64182 0.83675,-0.11148 1.52136,-0.10643 1.52136,0.0114 0,0.11778 0.35755,0.99416 0.79427,1.94768 1.33264,2.90966 3.99482,5.02379 7.01094,5.5671 0.58209,0.10485 1.27729,0.30357 1.54461,0.44184 0.90192,0.46648 5.33279,0.25825 7.12411,-0.33487 2.08185,-0.68932 5.96067,-2.56263 9.10694,-4.3987 2.3426,-1.36707 8.10305,-6.22469 9.40924,-7.93439 0.315,-0.41232 1.2986,-1.58326 2.18591,-2.60191 1.83604,-2.10777 3.96528,-4.99579 4.97386,-6.74688 0.37717,-0.65485 1.22751,-1.82553 1.88981,-2.60139 0.66231,-0.77587 1.20406,-1.50947 1.20406,-1.63039 0,-0.12091 0.83343,-1.32062 1.85208,-2.66599 2.1244,-2.80578 2.3757,-3.81092 1.1529,-4.61212 -0.75783,-0.49656 -2.71255,-0.4442 -7.03419,0.1881 -1.5246,0.22338 -2.21302,0.22302 -2.70475,-0.001 -0.94208,-0.42924 -1.10377,-1.40415 -0.43408,-2.61896 1.58199,-2.86976 2.69304,-8.6679 2.65204,-13.83895 -0.0351,-4.42557 -0.0696,-4.80941 -0.91984,-10.18646 -0.20709,-1.30968 -0.39775,-2.79796 -0.42375,-3.30729 -0.0542,-1.06092 -1.20394,-5.68835 -2.23501,-8.99583 -0.38559,-1.23693 -0.88818,-2.88769 -1.11724,-3.668 l -0.41651,-1.41852 2.37039,-2.28564 c 2.15468,-2.07731 2.51016,-2.56818 3.90157,-5.39037 1.72138,-3.49148 2.04729,-4.45868 2.83342,-8.40621 0.65129,-3.27039 0.69485,-4.99402 0.27389,-10.81329 -0.31648,-4.37483 -0.72958,-6.46628 -1.99161,-10.08672 -0.77346,-2.21886 -2.95475,-7.06185 -3.45612,-7.67292 -0.17909,-0.21828 -0.72086,-1.17079 -1.20354,-2.11667 -0.4827,-0.94589 -1.44235,-2.61276 -2.13269,-3.70416 -2.96143,-4.68197 -5.89742,-9.087655 -6.41563,-9.626806 -0.30723,-0.319654 -0.97215,-1.171624 -1.47795,-1.893425 -0.50579,-0.7218 -1.50949,-2.145503 -2.23035,-3.164148 -5.28531,-7.469031 -5.14131,-7.148587 -5.29425,-11.778092 -0.10096,-3.056236 -0.20908,-3.850262 -0.57774,-4.257622 -0.5953,-0.657806 -1.58841,-0.633595 -2.8882,0.07028 -1.59284,0.862565 -3.59356,1.545642 -4.52686,1.545642 -0.45865,0 -1.60715,-0.362309 -2.55229,-0.804602 -1.41363,-0.661513 -1.90969,-1.076897 -2.79673,-2.341459 -0.59308,-0.845493 -1.52976,-1.871583 -2.08153,-2.280481 -0.55177,-0.408894 -1.24167,-1.00023 -1.53272,-1.314131 -0.6155,-0.663855 -3.13416,-2.626104 -5.92936,-4.619873 -4.09303,-2.9195 -10.09547,-5.829667 -15.07556,-7.308598 -0.80195,-0.238152 -1.35237,-0.554246 -1.35237,-0.776697 0,-0.435297 2.49376,-1.270752 7.88013,-2.640666 5.47515,-1.392489 7.38799,-1.930632 7.96541,-2.239656 0.28825,-0.154268 0.82223,-0.280087 1.18701,-0.280087 0.36478,0 0.72668,-0.102697 0.80408,-0.227893 0.0774,-0.125198 0.69997,-0.304238 1.38338,-0.397908 1.18592,-0.162549 3.44875,-1.255689 3.86075,-1.865003 0.28365,-0.419491 0.24278,-3.308405 -0.0625,-4.407483 -0.18626,-0.670495 -0.58758,-1.157584 -1.38235,-1.677933 -1.03185,-0.67558 -1.25237,-0.718749 -2.80551,-0.552421 -3.47227,0.371848 -14.75346,5.043203 -19.07894,7.900293 -0.79174,0.522961 -1.46815,0.922381 -1.50275,0.887801 -0.0825,-0.08249 2.98936,-6.212304 3.5419,-7.067786 1.21546,-1.88188 2.30617,-4.075411 3.5295,-7.098275 3.34774,-8.27227 3.26401,-8.01549 2.85719,-8.736417 -0.46369,-0.821686 -1.71105,-1.527515 -3.88451,-2.198832 -0.90201,-0.278602 -1.54012,-0.4349 -2.03967,-0.4377 z" /><path
       id="path4677"
       style="fill:#f9efdc;fill-opacity:1;stroke-width:5.33339;stroke-linecap:round;stroke-linejoin:round"
       d="m 331.62891,356.13086 c -6.09393,0.3671 -12.5239,3.25048 -20.47852,8.91016 -16.99147,12.08936 -22.09268,14.05598 -40.14453,15.48438 -9.20172,0.7281 -18.18101,1.9375 -19.95508,2.6875 -1.97865,0.83649 -4.99999,5.0905 -7.8164,11.00195 -6.2791,13.17941 -13.24659,19.45395 -33.63281,30.29101 -52.98534,28.16637 -76.25344,48.54905 -79.4043,69.56055 -1.21093,8.07501 1.49776,23.34078 5.77929,32.58203 4.03525,8.70967 19.58536,25.51235 30.02149,32.43946 21.54194,14.29872 56.37369,26.881 84.41602,30.49414 33.96953,4.37684 88.44876,-0.23634 118.53515,-10.03711 20.58748,-6.70644 44.90575,-22.76963 53.00977,-35.01563 9.64614,-14.57631 11.09207,-19.18944 11.13867,-35.57226 0.0737,-25.965 2.26331,-48.77943 5.51172,-57.42383 1.62742,-4.33071 5.93672,-12.66494 9.57617,-18.51953 10.28788,-16.54959 12.72836,-23.18587 12.08399,-32.85157 -0.083,-1.24533 -1.73126,-2.98458 -3.66407,-3.86523 -4.42812,-2.01759 -24.04387,-5.3632 -43.49609,-7.41797 -23.1041,-2.44054 -31.87806,-5.59183 -50.03711,-17.97656 -8.68482,-5.92317 -17.94555,-11.67072 -20.58008,-12.77149 -3.67149,-1.53404 -7.20692,-2.22025 -10.86328,-2 z m -38.0918,34.1875 c 0.73548,0 1.33789,3.48708 1.33789,7.75 0,7.64497 -2.05296,11.65084 -3.73047,7.2793 -1.17389,-3.05914 0.73158,-15.0293 2.39258,-15.0293 z m 58.39258,6.75391 c 1.53856,0.0539 1.50826,1.00856 -0.92578,2.83789 -5.55199,4.17267 -21.82489,11.69178 -22.59766,10.44141 -1.02466,-1.65793 5.43739,-6.25837 15.03516,-10.70508 3.84199,-1.78001 6.94972,-2.62811 8.48828,-2.57422 z m 325.79688,312.94336 c -0.23398,-0.23398 -9.0655,5.72107 -19.62695,13.23243 -19.62744,13.95912 -31.04439,20.31123 -36.54492,20.33593 -4.24031,0.0191 -10.71263,-5.73095 -17.75977,-15.77734 -3.25035,-4.6337 -6.34957,-8.42578 -6.88672,-8.42578 -2.70962,0 -23.43932,34.55523 -33.15234,55.26367 -11.79463,25.14651 -15.83173,55.29514 -9.62696,71.87891 3.32467,8.88596 10.87923,16.80044 19.95118,20.89844 4.82181,2.17812 9.41165,2.89829 18.51953,2.90429 11.24479,0.008 13.08185,-0.43369 25.77343,-6.17578 15.72983,-7.11668 27.28058,-14.57195 43.10157,-27.82422 12.69114,-10.63059 33.62938,-34.46357 43.29687,-49.28125 3.57819,-5.48438 7.34101,-10.66206 8.36133,-11.50781 2.48345,-2.05849 11.75362,-18.56648 12.82617,-22.83984 0.74804,-2.98046 0.35852,-3.4004 -3.14453,-3.4004 -2.19885,0 -9.31982,0.76855 -15.82422,1.70899 -10.89451,1.57518 -11.82617,1.96849 -11.82617,4.98633 0,7.48295 -5.2783,1.72723 -10.13281,-11.04883 -1.54593,-4.06855 -3.7248,-13.4953 -4.84375,-20.94922 -1.11895,-7.45392 -2.22696,-13.74454 -2.46094,-13.97852 z M 298.09375,852.83985 c -1.41527,0.11281 -2.95848,0.97605 -5.99218,2.69922 -14.72161,8.36202 -42.80855,34.8963 -42.81055,40.44336 -1.5e-4,0.41329 10.73588,0.75196 23.85937,0.75196 23.51547,0 23.974,0.0584 31.62696,4.08593 4.27096,2.24768 11.89935,7.2167 16.95117,11.04102 5.05181,3.82432 10.53175,6.93907 12.17773,6.92187 1.646,-0.0172 5.7966,-1.30395 9.22461,-2.85937 20.75673,-9.41814 50.18132,-9.1003 80.27344,0.86719 3.70326,1.22663 8.00826,2.02229 9.56641,1.76953 2.74743,-0.44568 2.70777,-0.8257 -1.28906,-12.56836 -4.76333,-13.9946 -13.29741,-31.97661 -15.95508,-33.61914 -1.00403,-0.62053 -11.7794,-1.24379 -23.94532,-1.38477 -33.57012,-0.38903 -70.47314,-7.2071 -88.46289,-16.34375 -2.52113,-1.28043 -3.80933,-1.91749 -5.22461,-1.80469 z"
       transform="scale(0.26458333)" /><path
       id="path5925"
       style="fill:#f6ce85;fill-opacity:1;stroke-width:5.33339;stroke-linecap:round;stroke-linejoin:round"
       d="m 416.7754,205.54102 c -15.8964,-0.31081 -31.2627,1.03162 -45.68946,4.01758 -72.92203,15.09296 -120.0106,45.71741 -143.22656,93.15039 -8.49015,17.3464 -11.2849,28.67606 -11.3125,45.87109 -0.031,19.28302 3.79483,33.57657 12.94922,48.38868 l 2.96289,4.79492 2.48242,-3.23047 c 1.36503,-1.77652 4.31773,-6.64018 6.56055,-10.8086 2.24281,-4.16841 5.07249,-8.0946 6.28906,-8.72461 1.21657,-0.62999 8.86183,-1.60426 16.99023,-2.16406 18.43073,-1.26933 19.65992,-1.76239 49.24024,-19.81445 7.30037,-4.45522 9.65075,-5.16167 17.0957,-5.13477 10.35372,0.0375 16.34052,2.53624 30.79102,12.84766 18.73338,13.36754 29.05102,16.7247 59.03711,19.20703 14.21878,1.17708 31.44175,4.5631 36.49414,7.17578 6.76739,3.49956 8.37695,6.0919 8.37695,13.48047 0,8.31598 -1.13578,11.11358 -11.19531,27.57813 -4.25267,6.96041 -9.19729,16.85328 -10.99024,21.98437 -4.12923,11.81716 -5.96257,29.29087 -3.39648,32.38281 1.16016,1.39793 3.15678,1.9167 5.50977,1.43165 2.02973,-0.41841 9.46036,-1.69018 16.51172,-2.82813 33.37468,-5.38595 65.9842,-17.00978 86.15429,-30.70703 4.83154,-3.28102 9.3986,-7.62645 10.23438,-9.73828 2.01487,-5.09116 0.36414,-59.50304 -2.3457,-77.30078 -3.05112,-20.03908 -5.52682,-26.6368 -15.69532,-41.84571 -5.09242,-7.61664 -9.25781,-14.65116 -9.25781,-15.63281 0,-3.43796 5.542,-6.74295 15.67578,-9.34961 5.62186,-1.44608 10.639,-3.0472 11.14844,-3.55664 0.50944,-0.50943 2.53373,-5.84298 4.5,-11.85352 2.5926,-7.92509 4.48291,-11.37108 6.87695,-12.53906 3.22112,-1.57149 3.07142,-1.81377 -6.16406,-9.97852 -25.08234,-22.1743 -60.7126,-42.85271 -84.0332,-48.76953 -6.26788,-1.59027 -21.33257,-4.28537 -33.47657,-5.98828 -9.83122,-1.37859 -19.55982,-2.15922 -29.09765,-2.3457 z m -124.8418,21.12109 c -2.67769,-0.23379 -8.73146,0.98622 -18.19532,3.56446 -13.47992,3.67233 -13.7896,3.69065 -20.56054,1.25585 -3.78108,-1.35965 -7.07146,-2.23555 -7.3125,-1.94726 -0.24104,0.28828 -1.63685,3.72078 -3.10157,7.62695 -2.22715,5.93952 -7.46663,11.88503 -32.0039,36.32422 l -29.33985,29.22266 -8.67773,17.0957 c -16.44992,32.40701 -24.21217,61.12899 -22.63672,83.76367 0.86076,12.36669 5.93878,30.98266 10.27734,37.67579 2.52052,3.88839 3.50446,3.96068 7.875,0.57226 1.8685,-1.4486 12.04993,-7.2676 22.62696,-12.92969 23.83052,-12.75693 35.58536,-20.21065 35.60156,-22.57812 0.007,-0.99892 -2.15689,-6.12753 -4.80859,-11.39649 -11.14731,-22.14981 -13.72588,-41.5067 -8.76758,-65.84765 6.97749,-34.25348 31.40052,-67.86611 64.43359,-88.67774 14.13716,-8.90675 19.05265,-13.33496 14.58985,-13.72461 z m 326.6582,51.67578 c -1.73112,-0.12918 -4.91021,0.9305 -10.66015,3.45508 -12.36872,5.43063 -15.46973,5.57124 -25.48242,1.16602 -14.33354,-6.30626 -13.41376,-6.59031 -16.26368,5.03906 -3.17951,12.97427 -6.04793,15.8971 -18.34961,18.70313 -5.29033,1.20673 -10.00036,2.57652 -10.46679,3.04296 -0.46643,0.46644 0.53558,2.60043 2.22656,4.74219 15.74886,19.94706 20.53104,32.88842 23.93555,64.78907 2.83655,26.57887 2.02261,62.02654 -2.21485,96.51367 -1.58839,12.92749 -2.8849,29.59402 -2.8789,37.03711 0.0113,15.37711 3.88603,36.50145 8.27148,45.09766 3.25428,6.37891 14.33287,17.07573 25.58399,24.70312 12.16329,8.24579 8.64137,9.93327 -5.66211,2.71289 -17.96971,-9.07108 -26.91596,-21.95143 -31.98438,-46.04883 -3.29455,-15.66366 -1.98629,-48.9239 3.16211,-80.36914 l 0.7793,-4.75976 -6.14258,4.20703 c -3.37868,2.31449 -8.70786,5.58518 -11.8418,7.26757 -3.13392,1.68238 -6.65876,3.64736 -7.83398,4.36524 -9.60694,5.86839 -50.30005,17.62273 -74.84766,21.62109 l -18.88281,3.07617 -0.61914,16.54297 c -0.52599,14.03192 -1.17973,17.73106 -4.3086,24.37696 -5.56724,11.82518 -9.22176,16.16729 -22.05273,26.20703 -30.23119,23.65474 -68.1691,33.56087 -128.58008,33.57227 -28.32601,0.005 -37.06831,-0.94292 -58.58008,-6.35157 -3.34462,-0.84092 -4.04984,-0.29102 -6.69531,5.22461 -4.70563,9.81096 -10.091,30.08731 -14.12305,53.17188 -5.24732,30.0424 -5.18712,58.3258 0.17383,82.62109 8.24796,37.37892 13.1841,46.67629 39.04687,73.52149 19.5996,20.34411 31.127,28.82192 56.60938,41.63281 22.26818,11.195 42.08982,16.63562 70.46484,19.34375 16.80647,1.60403 17.46586,1.60752 33.54883,0.15625 7.91833,-0.71454 27.90263,-4.54247 44.70704,-8.5625 16.71333,-3.99827 43.60345,-9.5293 59.75586,-12.29101 16.15238,-2.76173 30.72137,-5.28597 32.375,-5.61133 2.64132,-0.51966 3.12732,-1.93571 3.99609,-11.6543 2.52149,-28.20735 10.6048,-49.63819 32.88672,-87.17578 18.02684,-30.3692 20.26853,-30.87587 35.96875,-8.14063 2.54795,3.68966 5.6183,7.08683 6.82226,7.54883 3.16025,1.21271 13.96345,-4.80612 34.57618,-19.26172 9.94003,-6.97088 19.3549,-13.05527 20.92187,-13.52148 5.56098,-1.65451 8.74394,3.2718 10.13086,15.67578 1.9477,17.41936 4.36197,13.74647 8.5625,-13.02735 2.68509,-17.11441 1.83036,-40.85591 -2.43555,-67.61523 -2.95585,-18.54157 -8.684,-42.94411 -11.5625,-49.26172 -1.81155,-3.97594 -1.53877,-3.98721 -13.95507,0.53125 -9.67309,3.52014 -18.52336,5.24757 -18.50586,3.61133 0.007,-0.67481 5.42733,-3.70163 12.04297,-6.72656 15.15331,-6.92874 32.52304,-22.43979 39.84375,-35.57813 8.9431,-16.04999 12.52797,-29.39593 13.26562,-49.37891 0.36151,-9.79355 -0.0121,-23.5756 -0.83008,-30.62695 -1.57687,-13.59284 -7.96461,-36.25126 -13.11718,-46.5293 -6.50659,-12.97894 -32.46867,-53.88427 -44.1543,-69.56836 -29.09748,-39.05372 -31.53234,-43.6931 -32.76563,-62.41016 -0.53231,-8.07865 -1.68856,-15.41121 -2.57031,-16.29296 -0.29697,-0.29698 -0.71397,-0.47061 -1.29102,-0.51368 z m -346.67969,6.76563 c 15.30158,0.57654 28.13891,5.35347 37.66797,14.0625 7.72965,7.06447 11.25342,13.29044 13.10352,23.15234 2.08144,11.09498 -7.58445,27.8537 -19.60156,33.98438 -16.65997,8.49929 -48.73634,1.52043 -61.76563,-13.4375 -15.96807,-18.33174 -14.77025,-39.38062 2.93359,-51.57813 7.8579,-5.41389 8.80623,-5.69388 20.95508,-6.17187 2.28399,-0.0899 4.52109,-0.0941 6.70703,-0.0117 z m 193.6504,11.87695 c 3.3979,-0.0177 6.7873,0.20448 10.11914,0.68946 23.79537,3.46362 47.11718,24.40796 47.11718,42.31445 0,16.85995 -11.50853,29.63313 -32.55859,36.13867 -14.06259,4.34608 -34.61781,3.81394 -49.35156,-1.2793 -14.50296,-5.01344 -18.86117,-7.36943 -24.50196,-13.25 -8.98081,-9.36257 -11.62036,-24.45746 -6.3125,-36.09179 7.51761,-16.47791 31.70293,-28.39795 55.48829,-28.52149 z M 98.822267,681.0547 c -1.755318,0.0509 -2.470921,0.61048 -2.457031,1.64453 0.04937,3.69357 13.145844,26.02104 23.042964,39.2832 5.65651,7.57968 18.32656,21.7936 28.1543,31.58789 28.59136,28.49398 48.49794,43.34489 80.49414,60.04883 10.21412,5.33238 19.43545,9.70949 20.49219,9.72461 1.05675,0.0154 -2.73071,-4.94168 -8.41797,-11.01367 -12.95461,-13.83102 -24.56454,-29.40278 -29.78711,-39.95313 -7.43294,-15.01563 -13.06992,-37.67829 -16.71094,-67.18359 -1.347,-10.91561 -1.67434,-11.0936 -20.73242,-11.31055 -16.49441,-0.18777 -36.80746,-3.37618 -55.1875,-8.66211 -10.14938,-2.91885 -15.96509,-4.25082 -18.890623,-4.16601 z"
       transform="scale(0.26458333)" /><path
       id="path6002"
       style="fill:#ffffff;fill-opacity:1;stroke-width:5.33339;stroke-linecap:round;stroke-linejoin:round"
       d="m 274.70508,289.35938 c -1.83181,0.0153 -3.93653,0.12813 -6.5332,0.30469 -19.46401,1.32344 -29.29278,7.82653 -33.02344,21.85156 -4.20033,15.79069 6.38836,30.854 27.91016,39.70312 6.51255,2.67777 10.95057,3.42663 20.49804,3.45313 11.01022,0.0306 12.79538,-0.35909 18.51758,-4.03906 8.53634,-5.48975 12.17152,-9.78966 14.02344,-16.58399 5.13854,-18.85225 -3.7564,-32.86662 -26.29297,-41.42773 -6.55823,-2.49132 -9.60417,-3.30775 -15.09961,-3.26172 z m 193.96094,12.77344 c -10.65111,-0.0402 -29.37552,3.01129 -34.35547,5.59961 -13.05173,6.78361 -22.625,20.68216 -22.625,32.8457 0,5.17167 1.04561,8.2445 4.62891,13.5918 5.37679,8.0237 12.7466,12.54098 28.13476,17.25 8.91204,2.72725 12.92823,3.16419 24.2168,2.63086 29.41797,-1.38988 47.89463,-14.26176 48.63672,-33.88086 0.69886,-18.47644 -24.19551,-37.94481 -48.63672,-38.03711 z m -190.88477,14.82226 c 1.04464,0 2.16574,0.8019 2.49219,1.78125 0.35309,1.05926 -0.65615,1.7793 -2.49219,1.7793 -1.83604,0 -2.84722,-0.72004 -2.49414,-1.7793 0.32645,-0.97935 1.44949,-1.78125 2.49414,-1.78125 z m 178.77735,19.01758 c 0.74431,0 1.58253,0.689 1.86328,1.53125 0.28075,0.84224 -0.55747,1.53125 -1.86328,1.53125 -1.30581,0 -2.14598,-0.68901 -1.86523,-1.53125 0.28073,-0.84225 1.12092,-1.53125 1.86523,-1.53125 z"
       transform="scale(0.26458333)" /></g></svg>
